<?xml version="1.0" encoding="utf-8" standalone="no"?>
<!DOCTYPE svg PUBLIC "-//W3C//DTD SVG 1.1//EN"
  "http://www.w3.org/Graphics/SVG/1.1/DTD/svg11.dtd">
<!-- Created with matplotlib (https://matplotlib.org/) -->
<svg height="262.19625pt" version="1.1" viewBox="0 0 382.603125 262.19625" width="382.603125pt" xmlns="http://www.w3.org/2000/svg" xmlns:xlink="http://www.w3.org/1999/xlink">
 <metadata>
  <rdf:RDF xmlns:cc="http://creativecommons.org/ns#" xmlns:dc="http://purl.org/dc/elements/1.1/" xmlns:rdf="http://www.w3.org/1999/02/22-rdf-syntax-ns#">
   <cc:Work>
    <dc:type rdf:resource="http://purl.org/dc/dcmitype/StillImage"/>
    <dc:date>2021-02-18T21:09:04.363043</dc:date>
    <dc:format>image/svg+xml</dc:format>
    <dc:creator>
     <cc:Agent>
      <dc:title>Matplotlib v3.3.1, https://matplotlib.org/</dc:title>
     </cc:Agent>
    </dc:creator>
   </cc:Work>
  </rdf:RDF>
 </metadata>
 <defs>
  <style type="text/css">*{stroke-linecap:butt;stroke-linejoin:round;}</style>
 </defs>
 <g id="figure_1">
  <g id="patch_1">
   <path d="M 0 262.19625 
L 382.603125 262.19625 
L 382.603125 0 
L 0 0 
z
" style="fill:none;"/>
  </g>
  <g id="axes_1">
   <g id="patch_2">
    <path d="M 40.603125 224.64 
L 375.403125 224.64 
L 375.403125 7.2 
L 40.603125 7.2 
z
" style="fill:#ffffff;"/>
   </g>
   <g id="matplotlib.axis_1">
    <g id="xtick_1">
     <g id="line2d_1">
      <defs>
       <path d="M 0 0 
L 0 3.5 
" id="m1fa3b21510" style="stroke:#000000;stroke-width:0.8;"/>
      </defs>
      <g>
       <use style="stroke:#000000;stroke-width:0.8;" x="40.603125" xlink:href="#m1fa3b21510" y="224.64"/>
      </g>
     </g>
     <g id="text_1">
      <!-- 0 -->
      <g transform="translate(37.421875 239.238437)scale(0.1 -0.1)">
       <defs>
        <path d="M 31.78125 66.40625 
Q 24.171875 66.40625 20.328125 58.90625 
Q 16.5 51.421875 16.5 36.375 
Q 16.5 21.390625 20.328125 13.890625 
Q 24.171875 6.390625 31.78125 6.390625 
Q 39.453125 6.390625 43.28125 13.890625 
Q 47.125 21.390625 47.125 36.375 
Q 47.125 51.421875 43.28125 58.90625 
Q 39.453125 66.40625 31.78125 66.40625 
z
M 31.78125 74.21875 
Q 44.046875 74.21875 50.515625 64.515625 
Q 56.984375 54.828125 56.984375 36.375 
Q 56.984375 17.96875 50.515625 8.265625 
Q 44.046875 -1.421875 31.78125 -1.421875 
Q 19.53125 -1.421875 13.0625 8.265625 
Q 6.59375 17.96875 6.59375 36.375 
Q 6.59375 54.828125 13.0625 64.515625 
Q 19.53125 74.21875 31.78125 74.21875 
z
" id="DejaVuSans-48"/>
       </defs>
       <use xlink:href="#DejaVuSans-48"/>
      </g>
     </g>
    </g>
    <g id="xtick_2">
     <g id="line2d_2">
      <g>
       <use style="stroke:#000000;stroke-width:0.8;" x="85.243125" xlink:href="#m1fa3b21510" y="224.64"/>
      </g>
     </g>
     <g id="text_2">
      <!-- 100 -->
      <g transform="translate(75.699375 239.238437)scale(0.1 -0.1)">
       <defs>
        <path d="M 12.40625 8.296875 
L 28.515625 8.296875 
L 28.515625 63.921875 
L 10.984375 60.40625 
L 10.984375 69.390625 
L 28.421875 72.90625 
L 38.28125 72.90625 
L 38.28125 8.296875 
L 54.390625 8.296875 
L 54.390625 0 
L 12.40625 0 
z
" id="DejaVuSans-49"/>
       </defs>
       <use xlink:href="#DejaVuSans-49"/>
       <use x="63.623047" xlink:href="#DejaVuSans-48"/>
       <use x="127.246094" xlink:href="#DejaVuSans-48"/>
      </g>
     </g>
    </g>
    <g id="xtick_3">
     <g id="line2d_3">
      <g>
       <use style="stroke:#000000;stroke-width:0.8;" x="129.883125" xlink:href="#m1fa3b21510" y="224.64"/>
      </g>
     </g>
     <g id="text_3">
      <!-- 200 -->
      <g transform="translate(120.339375 239.238437)scale(0.1 -0.1)">
       <defs>
        <path d="M 19.1875 8.296875 
L 53.609375 8.296875 
L 53.609375 0 
L 7.328125 0 
L 7.328125 8.296875 
Q 12.9375 14.109375 22.625 23.890625 
Q 32.328125 33.6875 34.8125 36.53125 
Q 39.546875 41.84375 41.421875 45.53125 
Q 43.3125 49.21875 43.3125 52.78125 
Q 43.3125 58.59375 39.234375 62.25 
Q 35.15625 65.921875 28.609375 65.921875 
Q 23.96875 65.921875 18.8125 64.3125 
Q 13.671875 62.703125 7.8125 59.421875 
L 7.8125 69.390625 
Q 13.765625 71.78125 18.9375 73 
Q 24.125 74.21875 28.421875 74.21875 
Q 39.75 74.21875 46.484375 68.546875 
Q 53.21875 62.890625 53.21875 53.421875 
Q 53.21875 48.921875 51.53125 44.890625 
Q 49.859375 40.875 45.40625 35.40625 
Q 44.1875 33.984375 37.640625 27.21875 
Q 31.109375 20.453125 19.1875 8.296875 
z
" id="DejaVuSans-50"/>
       </defs>
       <use xlink:href="#DejaVuSans-50"/>
       <use x="63.623047" xlink:href="#DejaVuSans-48"/>
       <use x="127.246094" xlink:href="#DejaVuSans-48"/>
      </g>
     </g>
    </g>
    <g id="xtick_4">
     <g id="line2d_4">
      <g>
       <use style="stroke:#000000;stroke-width:0.8;" x="174.523125" xlink:href="#m1fa3b21510" y="224.64"/>
      </g>
     </g>
     <g id="text_4">
      <!-- 300 -->
      <g transform="translate(164.979375 239.238437)scale(0.1 -0.1)">
       <defs>
        <path d="M 40.578125 39.3125 
Q 47.65625 37.796875 51.625 33 
Q 55.609375 28.21875 55.609375 21.1875 
Q 55.609375 10.40625 48.1875 4.484375 
Q 40.765625 -1.421875 27.09375 -1.421875 
Q 22.515625 -1.421875 17.65625 -0.515625 
Q 12.796875 0.390625 7.625 2.203125 
L 7.625 11.71875 
Q 11.71875 9.328125 16.59375 8.109375 
Q 21.484375 6.890625 26.8125 6.890625 
Q 36.078125 6.890625 40.9375 10.546875 
Q 45.796875 14.203125 45.796875 21.1875 
Q 45.796875 27.640625 41.28125 31.265625 
Q 36.765625 34.90625 28.71875 34.90625 
L 20.21875 34.90625 
L 20.21875 43.015625 
L 29.109375 43.015625 
Q 36.375 43.015625 40.234375 45.921875 
Q 44.09375 48.828125 44.09375 54.296875 
Q 44.09375 59.90625 40.109375 62.90625 
Q 36.140625 65.921875 28.71875 65.921875 
Q 24.65625 65.921875 20.015625 65.03125 
Q 15.375 64.15625 9.8125 62.3125 
L 9.8125 71.09375 
Q 15.4375 72.65625 20.34375 73.4375 
Q 25.25 74.21875 29.59375 74.21875 
Q 40.828125 74.21875 47.359375 69.109375 
Q 53.90625 64.015625 53.90625 55.328125 
Q 53.90625 49.265625 50.4375 45.09375 
Q 46.96875 40.921875 40.578125 39.3125 
z
" id="DejaVuSans-51"/>
       </defs>
       <use xlink:href="#DejaVuSans-51"/>
       <use x="63.623047" xlink:href="#DejaVuSans-48"/>
       <use x="127.246094" xlink:href="#DejaVuSans-48"/>
      </g>
     </g>
    </g>
    <g id="xtick_5">
     <g id="line2d_5">
      <g>
       <use style="stroke:#000000;stroke-width:0.8;" x="219.163125" xlink:href="#m1fa3b21510" y="224.64"/>
      </g>
     </g>
     <g id="text_5">
      <!-- 400 -->
      <g transform="translate(209.619375 239.238437)scale(0.1 -0.1)">
       <defs>
        <path d="M 37.796875 64.3125 
L 12.890625 25.390625 
L 37.796875 25.390625 
z
M 35.203125 72.90625 
L 47.609375 72.90625 
L 47.609375 25.390625 
L 58.015625 25.390625 
L 58.015625 17.1875 
L 47.609375 17.1875 
L 47.609375 0 
L 37.796875 0 
L 37.796875 17.1875 
L 4.890625 17.1875 
L 4.890625 26.703125 
z
" id="DejaVuSans-52"/>
       </defs>
       <use xlink:href="#DejaVuSans-52"/>
       <use x="63.623047" xlink:href="#DejaVuSans-48"/>
       <use x="127.246094" xlink:href="#DejaVuSans-48"/>
      </g>
     </g>
    </g>
    <g id="xtick_6">
     <g id="line2d_6">
      <g>
       <use style="stroke:#000000;stroke-width:0.8;" x="263.803125" xlink:href="#m1fa3b21510" y="224.64"/>
      </g>
     </g>
     <g id="text_6">
      <!-- 500 -->
      <g transform="translate(254.259375 239.238437)scale(0.1 -0.1)">
       <defs>
        <path d="M 10.796875 72.90625 
L 49.515625 72.90625 
L 49.515625 64.59375 
L 19.828125 64.59375 
L 19.828125 46.734375 
Q 21.96875 47.46875 24.109375 47.828125 
Q 26.265625 48.1875 28.421875 48.1875 
Q 40.625 48.1875 47.75 41.5 
Q 54.890625 34.8125 54.890625 23.390625 
Q 54.890625 11.625 47.5625 5.09375 
Q 40.234375 -1.421875 26.90625 -1.421875 
Q 22.3125 -1.421875 17.546875 -0.640625 
Q 12.796875 0.140625 7.71875 1.703125 
L 7.71875 11.625 
Q 12.109375 9.234375 16.796875 8.0625 
Q 21.484375 6.890625 26.703125 6.890625 
Q 35.15625 6.890625 40.078125 11.328125 
Q 45.015625 15.765625 45.015625 23.390625 
Q 45.015625 31 40.078125 35.4375 
Q 35.15625 39.890625 26.703125 39.890625 
Q 22.75 39.890625 18.8125 39.015625 
Q 14.890625 38.140625 10.796875 36.28125 
z
" id="DejaVuSans-53"/>
       </defs>
       <use xlink:href="#DejaVuSans-53"/>
       <use x="63.623047" xlink:href="#DejaVuSans-48"/>
       <use x="127.246094" xlink:href="#DejaVuSans-48"/>
      </g>
     </g>
    </g>
    <g id="xtick_7">
     <g id="line2d_7">
      <g>
       <use style="stroke:#000000;stroke-width:0.8;" x="308.443125" xlink:href="#m1fa3b21510" y="224.64"/>
      </g>
     </g>
     <g id="text_7">
      <!-- 600 -->
      <g transform="translate(298.899375 239.238437)scale(0.1 -0.1)">
       <defs>
        <path d="M 33.015625 40.375 
Q 26.375 40.375 22.484375 35.828125 
Q 18.609375 31.296875 18.609375 23.390625 
Q 18.609375 15.53125 22.484375 10.953125 
Q 26.375 6.390625 33.015625 6.390625 
Q 39.65625 6.390625 43.53125 10.953125 
Q 47.40625 15.53125 47.40625 23.390625 
Q 47.40625 31.296875 43.53125 35.828125 
Q 39.65625 40.375 33.015625 40.375 
z
M 52.59375 71.296875 
L 52.59375 62.3125 
Q 48.875 64.0625 45.09375 64.984375 
Q 41.3125 65.921875 37.59375 65.921875 
Q 27.828125 65.921875 22.671875 59.328125 
Q 17.53125 52.734375 16.796875 39.40625 
Q 19.671875 43.65625 24.015625 45.921875 
Q 28.375 48.1875 33.59375 48.1875 
Q 44.578125 48.1875 50.953125 41.515625 
Q 57.328125 34.859375 57.328125 23.390625 
Q 57.328125 12.15625 50.6875 5.359375 
Q 44.046875 -1.421875 33.015625 -1.421875 
Q 20.359375 -1.421875 13.671875 8.265625 
Q 6.984375 17.96875 6.984375 36.375 
Q 6.984375 53.65625 15.1875 63.9375 
Q 23.390625 74.21875 37.203125 74.21875 
Q 40.921875 74.21875 44.703125 73.484375 
Q 48.484375 72.75 52.59375 71.296875 
z
" id="DejaVuSans-54"/>
       </defs>
       <use xlink:href="#DejaVuSans-54"/>
       <use x="63.623047" xlink:href="#DejaVuSans-48"/>
       <use x="127.246094" xlink:href="#DejaVuSans-48"/>
      </g>
     </g>
    </g>
    <g id="xtick_8">
     <g id="line2d_8">
      <g>
       <use style="stroke:#000000;stroke-width:0.8;" x="353.083125" xlink:href="#m1fa3b21510" y="224.64"/>
      </g>
     </g>
     <g id="text_8">
      <!-- 700 -->
      <g transform="translate(343.539375 239.238437)scale(0.1 -0.1)">
       <defs>
        <path d="M 8.203125 72.90625 
L 55.078125 72.90625 
L 55.078125 68.703125 
L 28.609375 0 
L 18.3125 0 
L 43.21875 64.59375 
L 8.203125 64.59375 
z
" id="DejaVuSans-55"/>
       </defs>
       <use xlink:href="#DejaVuSans-55"/>
       <use x="63.623047" xlink:href="#DejaVuSans-48"/>
       <use x="127.246094" xlink:href="#DejaVuSans-48"/>
      </g>
     </g>
    </g>
    <g id="text_9">
     <!-- Iteration # -->
     <g transform="translate(181.015625 252.916562)scale(0.1 -0.1)">
      <defs>
       <path d="M 9.8125 72.90625 
L 19.671875 72.90625 
L 19.671875 0 
L 9.8125 0 
z
" id="DejaVuSans-73"/>
       <path d="M 18.3125 70.21875 
L 18.3125 54.6875 
L 36.8125 54.6875 
L 36.8125 47.703125 
L 18.3125 47.703125 
L 18.3125 18.015625 
Q 18.3125 11.328125 20.140625 9.421875 
Q 21.96875 7.515625 27.59375 7.515625 
L 36.8125 7.515625 
L 36.8125 0 
L 27.59375 0 
Q 17.1875 0 13.234375 3.875 
Q 9.28125 7.765625 9.28125 18.015625 
L 9.28125 47.703125 
L 2.6875 47.703125 
L 2.6875 54.6875 
L 9.28125 54.6875 
L 9.28125 70.21875 
z
" id="DejaVuSans-116"/>
       <path d="M 56.203125 29.59375 
L 56.203125 25.203125 
L 14.890625 25.203125 
Q 15.484375 15.921875 20.484375 11.0625 
Q 25.484375 6.203125 34.421875 6.203125 
Q 39.59375 6.203125 44.453125 7.46875 
Q 49.3125 8.734375 54.109375 11.28125 
L 54.109375 2.78125 
Q 49.265625 0.734375 44.1875 -0.34375 
Q 39.109375 -1.421875 33.890625 -1.421875 
Q 20.796875 -1.421875 13.15625 6.1875 
Q 5.515625 13.8125 5.515625 26.8125 
Q 5.515625 40.234375 12.765625 48.109375 
Q 20.015625 56 32.328125 56 
Q 43.359375 56 49.78125 48.890625 
Q 56.203125 41.796875 56.203125 29.59375 
z
M 47.21875 32.234375 
Q 47.125 39.59375 43.09375 43.984375 
Q 39.0625 48.390625 32.421875 48.390625 
Q 24.90625 48.390625 20.390625 44.140625 
Q 15.875 39.890625 15.1875 32.171875 
z
" id="DejaVuSans-101"/>
       <path d="M 41.109375 46.296875 
Q 39.59375 47.171875 37.8125 47.578125 
Q 36.03125 48 33.890625 48 
Q 26.265625 48 22.1875 43.046875 
Q 18.109375 38.09375 18.109375 28.8125 
L 18.109375 0 
L 9.078125 0 
L 9.078125 54.6875 
L 18.109375 54.6875 
L 18.109375 46.1875 
Q 20.953125 51.171875 25.484375 53.578125 
Q 30.03125 56 36.53125 56 
Q 37.453125 56 38.578125 55.875 
Q 39.703125 55.765625 41.0625 55.515625 
z
" id="DejaVuSans-114"/>
       <path d="M 34.28125 27.484375 
Q 23.390625 27.484375 19.1875 25 
Q 14.984375 22.515625 14.984375 16.5 
Q 14.984375 11.71875 18.140625 8.90625 
Q 21.296875 6.109375 26.703125 6.109375 
Q 34.1875 6.109375 38.703125 11.40625 
Q 43.21875 16.703125 43.21875 25.484375 
L 43.21875 27.484375 
z
M 52.203125 31.203125 
L 52.203125 0 
L 43.21875 0 
L 43.21875 8.296875 
Q 40.140625 3.328125 35.546875 0.953125 
Q 30.953125 -1.421875 24.3125 -1.421875 
Q 15.921875 -1.421875 10.953125 3.296875 
Q 6 8.015625 6 15.921875 
Q 6 25.140625 12.171875 29.828125 
Q 18.359375 34.515625 30.609375 34.515625 
L 43.21875 34.515625 
L 43.21875 35.40625 
Q 43.21875 41.609375 39.140625 45 
Q 35.0625 48.390625 27.6875 48.390625 
Q 23 48.390625 18.546875 47.265625 
Q 14.109375 46.140625 10.015625 43.890625 
L 10.015625 52.203125 
Q 14.9375 54.109375 19.578125 55.046875 
Q 24.21875 56 28.609375 56 
Q 40.484375 56 46.34375 49.84375 
Q 52.203125 43.703125 52.203125 31.203125 
z
" id="DejaVuSans-97"/>
       <path d="M 9.421875 54.6875 
L 18.40625 54.6875 
L 18.40625 0 
L 9.421875 0 
z
M 9.421875 75.984375 
L 18.40625 75.984375 
L 18.40625 64.59375 
L 9.421875 64.59375 
z
" id="DejaVuSans-105"/>
       <path d="M 30.609375 48.390625 
Q 23.390625 48.390625 19.1875 42.75 
Q 14.984375 37.109375 14.984375 27.296875 
Q 14.984375 17.484375 19.15625 11.84375 
Q 23.34375 6.203125 30.609375 6.203125 
Q 37.796875 6.203125 41.984375 11.859375 
Q 46.1875 17.53125 46.1875 27.296875 
Q 46.1875 37.015625 41.984375 42.703125 
Q 37.796875 48.390625 30.609375 48.390625 
z
M 30.609375 56 
Q 42.328125 56 49.015625 48.375 
Q 55.71875 40.765625 55.71875 27.296875 
Q 55.71875 13.875 49.015625 6.21875 
Q 42.328125 -1.421875 30.609375 -1.421875 
Q 18.84375 -1.421875 12.171875 6.21875 
Q 5.515625 13.875 5.515625 27.296875 
Q 5.515625 40.765625 12.171875 48.375 
Q 18.84375 56 30.609375 56 
z
" id="DejaVuSans-111"/>
       <path d="M 54.890625 33.015625 
L 54.890625 0 
L 45.90625 0 
L 45.90625 32.71875 
Q 45.90625 40.484375 42.875 44.328125 
Q 39.84375 48.1875 33.796875 48.1875 
Q 26.515625 48.1875 22.3125 43.546875 
Q 18.109375 38.921875 18.109375 30.90625 
L 18.109375 0 
L 9.078125 0 
L 9.078125 54.6875 
L 18.109375 54.6875 
L 18.109375 46.1875 
Q 21.34375 51.125 25.703125 53.5625 
Q 30.078125 56 35.796875 56 
Q 45.21875 56 50.046875 50.171875 
Q 54.890625 44.34375 54.890625 33.015625 
z
" id="DejaVuSans-110"/>
       <path id="DejaVuSans-32"/>
       <path d="M 51.125 44 
L 36.921875 44 
L 32.8125 27.6875 
L 47.125 27.6875 
z
M 43.796875 71.78125 
L 38.71875 51.515625 
L 52.984375 51.515625 
L 58.109375 71.78125 
L 65.921875 71.78125 
L 60.890625 51.515625 
L 76.125 51.515625 
L 76.125 44 
L 58.984375 44 
L 54.984375 27.6875 
L 70.515625 27.6875 
L 70.515625 20.21875 
L 53.078125 20.21875 
L 48 0 
L 40.1875 0 
L 45.21875 20.21875 
L 30.90625 20.21875 
L 25.875 0 
L 18.015625 0 
L 23.09375 20.21875 
L 7.71875 20.21875 
L 7.71875 27.6875 
L 24.90625 27.6875 
L 29 44 
L 13.28125 44 
L 13.28125 51.515625 
L 30.90625 51.515625 
L 35.890625 71.78125 
z
" id="DejaVuSans-35"/>
      </defs>
      <use xlink:href="#DejaVuSans-73"/>
      <use x="29.492188" xlink:href="#DejaVuSans-116"/>
      <use x="68.701172" xlink:href="#DejaVuSans-101"/>
      <use x="130.224609" xlink:href="#DejaVuSans-114"/>
      <use x="171.337891" xlink:href="#DejaVuSans-97"/>
      <use x="232.617188" xlink:href="#DejaVuSans-116"/>
      <use x="271.826172" xlink:href="#DejaVuSans-105"/>
      <use x="299.609375" xlink:href="#DejaVuSans-111"/>
      <use x="360.791016" xlink:href="#DejaVuSans-110"/>
      <use x="424.169922" xlink:href="#DejaVuSans-32"/>
      <use x="455.957031" xlink:href="#DejaVuSans-35"/>
     </g>
    </g>
   </g>
   <g id="matplotlib.axis_2">
    <g id="ytick_1">
     <g id="line2d_9">
      <defs>
       <path d="M 0 0 
L -3.5 0 
" id="m518b39cf46" style="stroke:#000000;stroke-width:0.8;"/>
      </defs>
      <g>
       <use style="stroke:#000000;stroke-width:0.8;" x="40.603125" xlink:href="#m518b39cf46" y="216.021107"/>
      </g>
     </g>
     <g id="text_10">
      <!-- 0 -->
      <g transform="translate(27.240625 219.820326)scale(0.1 -0.1)">
       <use xlink:href="#DejaVuSans-48"/>
      </g>
     </g>
    </g>
    <g id="ytick_2">
     <g id="line2d_10">
      <g>
       <use style="stroke:#000000;stroke-width:0.8;" x="40.603125" xlink:href="#m518b39cf46" y="182.997652"/>
      </g>
     </g>
     <g id="text_11">
      <!-- 2 -->
      <g transform="translate(27.240625 186.796871)scale(0.1 -0.1)">
       <use xlink:href="#DejaVuSans-50"/>
      </g>
     </g>
    </g>
    <g id="ytick_3">
     <g id="line2d_11">
      <g>
       <use style="stroke:#000000;stroke-width:0.8;" x="40.603125" xlink:href="#m518b39cf46" y="149.974197"/>
      </g>
     </g>
     <g id="text_12">
      <!-- 4 -->
      <g transform="translate(27.240625 153.773416)scale(0.1 -0.1)">
       <use xlink:href="#DejaVuSans-52"/>
      </g>
     </g>
    </g>
    <g id="ytick_4">
     <g id="line2d_12">
      <g>
       <use style="stroke:#000000;stroke-width:0.8;" x="40.603125" xlink:href="#m518b39cf46" y="116.950742"/>
      </g>
     </g>
     <g id="text_13">
      <!-- 6 -->
      <g transform="translate(27.240625 120.749961)scale(0.1 -0.1)">
       <use xlink:href="#DejaVuSans-54"/>
      </g>
     </g>
    </g>
    <g id="ytick_5">
     <g id="line2d_13">
      <g>
       <use style="stroke:#000000;stroke-width:0.8;" x="40.603125" xlink:href="#m518b39cf46" y="83.927287"/>
      </g>
     </g>
     <g id="text_14">
      <!-- 8 -->
      <g transform="translate(27.240625 87.726506)scale(0.1 -0.1)">
       <defs>
        <path d="M 31.78125 34.625 
Q 24.75 34.625 20.71875 30.859375 
Q 16.703125 27.09375 16.703125 20.515625 
Q 16.703125 13.921875 20.71875 10.15625 
Q 24.75 6.390625 31.78125 6.390625 
Q 38.8125 6.390625 42.859375 10.171875 
Q 46.921875 13.96875 46.921875 20.515625 
Q 46.921875 27.09375 42.890625 30.859375 
Q 38.875 34.625 31.78125 34.625 
z
M 21.921875 38.8125 
Q 15.578125 40.375 12.03125 44.71875 
Q 8.5 49.078125 8.5 55.328125 
Q 8.5 64.0625 14.71875 69.140625 
Q 20.953125 74.21875 31.78125 74.21875 
Q 42.671875 74.21875 48.875 69.140625 
Q 55.078125 64.0625 55.078125 55.328125 
Q 55.078125 49.078125 51.53125 44.71875 
Q 48 40.375 41.703125 38.8125 
Q 48.828125 37.15625 52.796875 32.3125 
Q 56.78125 27.484375 56.78125 20.515625 
Q 56.78125 9.90625 50.3125 4.234375 
Q 43.84375 -1.421875 31.78125 -1.421875 
Q 19.734375 -1.421875 13.25 4.234375 
Q 6.78125 9.90625 6.78125 20.515625 
Q 6.78125 27.484375 10.78125 32.3125 
Q 14.796875 37.15625 21.921875 38.8125 
z
M 18.3125 54.390625 
Q 18.3125 48.734375 21.84375 45.5625 
Q 25.390625 42.390625 31.78125 42.390625 
Q 38.140625 42.390625 41.71875 45.5625 
Q 45.3125 48.734375 45.3125 54.390625 
Q 45.3125 60.0625 41.71875 63.234375 
Q 38.140625 66.40625 31.78125 66.40625 
Q 25.390625 66.40625 21.84375 63.234375 
Q 18.3125 60.0625 18.3125 54.390625 
z
" id="DejaVuSans-56"/>
       </defs>
       <use xlink:href="#DejaVuSans-56"/>
      </g>
     </g>
    </g>
    <g id="ytick_6">
     <g id="line2d_14">
      <g>
       <use style="stroke:#000000;stroke-width:0.8;" x="40.603125" xlink:href="#m518b39cf46" y="50.903832"/>
      </g>
     </g>
     <g id="text_15">
      <!-- 10 -->
      <g transform="translate(20.878125 54.703051)scale(0.1 -0.1)">
       <use xlink:href="#DejaVuSans-49"/>
       <use x="63.623047" xlink:href="#DejaVuSans-48"/>
      </g>
     </g>
    </g>
    <g id="ytick_7">
     <g id="line2d_15">
      <g>
       <use style="stroke:#000000;stroke-width:0.8;" x="40.603125" xlink:href="#m518b39cf46" y="17.880377"/>
      </g>
     </g>
     <g id="text_16">
      <!-- 12 -->
      <g transform="translate(20.878125 21.679596)scale(0.1 -0.1)">
       <use xlink:href="#DejaVuSans-49"/>
       <use x="63.623047" xlink:href="#DejaVuSans-50"/>
      </g>
     </g>
    </g>
    <g id="text_17">
     <!-- Error -->
     <g transform="translate(14.798438 128.105156)rotate(-90)scale(0.1 -0.1)">
      <defs>
       <path d="M 9.8125 72.90625 
L 55.90625 72.90625 
L 55.90625 64.59375 
L 19.671875 64.59375 
L 19.671875 43.015625 
L 54.390625 43.015625 
L 54.390625 34.71875 
L 19.671875 34.71875 
L 19.671875 8.296875 
L 56.78125 8.296875 
L 56.78125 0 
L 9.8125 0 
z
" id="DejaVuSans-69"/>
      </defs>
      <use xlink:href="#DejaVuSans-69"/>
      <use x="63.183594" xlink:href="#DejaVuSans-114"/>
      <use x="102.546875" xlink:href="#DejaVuSans-114"/>
      <use x="141.410156" xlink:href="#DejaVuSans-111"/>
      <use x="202.591797" xlink:href="#DejaVuSans-114"/>
     </g>
    </g>
   </g>
   <g id="line2d_16">
    <path clip-path="url(#p60414968a7)" d="M 40.603125 28.393398 
L 41.495925 51.743078 
L 41.942325 57.282889 
L 42.388725 87.249909 
L 42.835125 79.768675 
L 43.281525 102.373752 
L 43.727925 116.418748 
L 44.174325 98.776162 
L 44.620725 111.457085 
L 45.067125 113.366252 
L 45.513525 128.973001 
L 45.959925 124.480516 
L 46.406325 136.288494 
L 46.852725 130.98637 
L 47.299125 131.945524 
L 47.745525 140.128371 
L 48.191925 131.834408 
L 48.638325 140.498345 
L 49.084725 138.685728 
L 49.531125 140.746018 
L 49.977525 141.549493 
L 50.423925 141.142164 
L 50.870325 151.526885 
L 51.316725 137.043706 
L 51.763125 140.027494 
L 52.209525 148.871428 
L 52.655925 149.383475 
L 53.102325 153.063083 
L 53.548725 142.547632 
L 53.995125 146.132295 
L 54.441525 158.190711 
L 54.887925 157.152913 
L 55.334325 156.851202 
L 55.780725 160.370771 
L 56.227125 149.996033 
L 56.673525 154.503479 
L 57.119925 156.885539 
L 57.566325 154.418682 
L 58.012725 160.317293 
L 58.459125 155.829252 
L 58.905525 156.470651 
L 59.351925 164.123684 
L 59.798325 161.769292 
L 60.244725 162.143253 
L 60.691125 158.782563 
L 61.137525 160.495613 
L 61.583925 160.186627 
L 62.030325 156.587116 
L 62.476725 163.473499 
L 62.923125 166.73183 
L 63.369525 167.878715 
L 63.815925 170.24685 
L 64.262325 158.708171 
L 64.708725 163.184824 
L 65.155125 164.982117 
L 65.601525 168.288489 
L 66.047925 173.138717 
L 66.494325 174.41438 
L 66.940725 169.025731 
L 67.387125 172.040221 
L 67.833525 165.064976 
L 68.279925 165.510467 
L 68.726325 170.251259 
L 69.172725 172.55672 
L 69.619125 175.69429 
L 70.065525 176.486837 
L 70.511925 167.830761 
L 70.958325 171.08254 
L 71.404725 164.451668 
L 71.851125 173.282005 
L 72.743925 164.895173 
L 73.190325 172.01291 
L 73.636725 169.481168 
L 74.083125 175.596892 
L 74.529525 157.742329 
L 75.422325 177.946015 
L 75.868725 177.107406 
L 76.315125 176.606533 
L 76.761525 172.086974 
L 77.207925 175.331859 
L 77.654325 171.571996 
L 78.100725 179.530016 
L 78.993525 172.207122 
L 79.439925 178.324081 
L 79.886325 181.808285 
L 80.332725 176.273518 
L 81.225525 181.439441 
L 82.118325 174.954187 
L 83.011125 182.908784 
L 83.457525 180.934777 
L 83.903925 180.908381 
L 84.350325 179.395422 
L 84.796725 182.124839 
L 85.243125 174.77316 
L 85.689525 174.425749 
L 86.135925 180.265438 
L 86.582325 175.809088 
L 87.028725 182.311812 
L 87.475125 176.723392 
L 87.921525 182.55304 
L 88.367925 177.437734 
L 88.814325 182.831787 
L 89.260725 186.039392 
L 89.707125 179.756183 
L 90.153525 178.933459 
L 90.599925 185.735828 
L 91.046325 175.758379 
L 91.492725 182.026935 
L 91.939125 182.435991 
L 92.385525 183.717952 
L 92.831925 186.728449 
L 93.278325 186.32119 
L 93.724725 183.880498 
L 94.171125 185.849039 
L 94.617525 180.109211 
L 95.063925 178.21604 
L 95.510325 187.691424 
L 95.956725 187.700079 
L 96.403125 184.380723 
L 96.849525 186.642861 
L 97.295925 190.437901 
L 97.742325 180.827743 
L 98.188725 182.574797 
L 98.635125 185.454604 
L 99.081525 186.143235 
L 99.527925 180.60144 
L 99.974325 180.301002 
L 100.420725 176.063137 
L 100.867125 187.675555 
L 101.313525 183.391655 
L 101.759925 177.09306 
L 102.206325 184.61516 
L 102.652725 184.298093 
L 103.099125 180.061438 
L 103.545525 186.924349 
L 103.991925 184.031216 
L 104.884725 190.65638 
L 105.331125 189.787925 
L 105.777525 180.241676 
L 106.223925 183.188203 
L 106.670325 183.033169 
L 107.116725 184.703312 
L 107.563125 196.18738 
L 108.009525 185.458385 
L 108.455925 186.290749 
L 108.902325 187.580235 
L 109.348725 186.604466 
L 109.795125 182.506882 
L 110.687925 190.251001 
L 111.134325 186.597089 
L 111.580725 188.225803 
L 112.027125 186.306266 
L 112.473525 182.69672 
L 112.919925 194.310527 
L 113.366325 185.995429 
L 113.812725 185.374946 
L 114.259125 189.936479 
L 114.705525 187.327331 
L 115.151925 185.935287 
L 115.598325 187.583587 
L 116.044725 187.995178 
L 116.491125 190.336679 
L 116.937525 194.54131 
L 117.383925 181.99568 
L 117.830325 187.86776 
L 118.723125 190.572746 
L 119.169525 195.723556 
L 119.615925 191.5693 
L 120.062325 190.795663 
L 120.955125 186.308347 
L 121.401525 185.7778 
L 121.847925 190.598163 
L 122.294325 189.461559 
L 122.740725 190.134716 
L 123.187125 189.88983 
L 123.633525 191.202541 
L 124.079925 188.857658 
L 124.972725 195.403584 
L 125.419125 183.537675 
L 125.865525 182.124029 
L 126.311925 190.491202 
L 126.758325 191.085577 
L 127.204725 189.589803 
L 127.651125 184.15277 
L 128.097525 186.598444 
L 128.543925 184.565367 
L 128.990325 185.968344 
L 129.436725 191.023443 
L 129.883125 197.74929 
L 130.329525 190.785068 
L 130.775925 193.070719 
L 131.222325 181.797704 
L 131.668725 194.609316 
L 132.115125 196.752619 
L 132.561525 187.462491 
L 133.007925 199.45022 
L 133.454325 193.683224 
L 133.900725 191.749591 
L 134.347125 188.101516 
L 134.793525 186.700443 
L 135.239925 192.610453 
L 135.686325 187.64608 
L 136.132725 195.937613 
L 136.579125 189.258932 
L 137.025525 197.562225 
L 137.471925 189.016563 
L 137.918325 187.053762 
L 138.364725 197.555579 
L 138.811125 189.986229 
L 139.257525 186.087574 
L 139.703925 188.432561 
L 140.150325 192.187097 
L 140.596725 190.418142 
L 141.043125 196.746201 
L 141.489525 190.73453 
L 141.935925 190.295067 
L 142.382325 191.825552 
L 142.828725 182.119829 
L 143.275125 194.284238 
L 143.721525 187.325479 
L 144.167925 188.983813 
L 144.614325 198.21252 
L 145.507125 194.212963 
L 145.953525 190.792319 
L 146.399925 196.419082 
L 146.846325 195.249903 
L 147.292725 187.777221 
L 147.739125 193.108022 
L 148.185525 194.941283 
L 148.631925 198.209751 
L 149.078325 191.61239 
L 149.524725 195.159561 
L 149.971125 190.332139 
L 150.417525 193.365044 
L 150.863925 194.941384 
L 151.310325 194.989154 
L 151.756725 189.250258 
L 152.203125 193.419608 
L 152.649525 199.268305 
L 153.095925 193.024279 
L 153.542325 191.961785 
L 153.988725 189.109027 
L 154.435125 189.605387 
L 155.327925 193.574522 
L 155.774325 191.606487 
L 156.220725 194.26649 
L 156.667125 193.815967 
L 157.113525 190.543973 
L 157.559925 199.288519 
L 158.006325 193.80854 
L 158.452725 197.287869 
L 158.899125 194.49928 
L 159.345525 202.667905 
L 159.791925 189.812203 
L 160.238325 192.027206 
L 160.684725 195.602098 
L 161.131125 191.722982 
L 161.577525 193.8306 
L 162.023925 193.750194 
L 162.470325 194.773851 
L 162.916725 194.792603 
L 163.363125 196.946199 
L 163.809525 195.741238 
L 164.255925 199.877247 
L 164.702325 195.417276 
L 165.148725 195.776358 
L 165.595125 194.195877 
L 166.041525 198.574187 
L 166.487925 188.58008 
L 167.380725 201.81364 
L 167.827125 196.186696 
L 168.273525 192.529171 
L 168.719925 196.332105 
L 169.166325 191.539705 
L 169.612725 190.998648 
L 170.059125 193.296899 
L 170.505525 194.400724 
L 170.951925 196.478855 
L 171.398325 192.385004 
L 171.844725 192.727507 
L 172.291125 193.712443 
L 172.737525 196.313486 
L 173.183925 202.283847 
L 173.630325 192.269147 
L 174.076725 196.068103 
L 174.523125 198.868514 
L 174.969525 195.058559 
L 175.415925 193.729422 
L 175.862325 195.359752 
L 176.308725 200.956761 
L 176.755125 198.830315 
L 177.201525 198.369993 
L 178.540725 193.739073 
L 178.987125 196.936416 
L 179.433525 202.461201 
L 179.879925 189.694926 
L 180.326325 196.506167 
L 181.219125 198.238728 
L 181.665525 196.194772 
L 182.111925 195.144768 
L 182.558325 199.237328 
L 183.004725 196.199578 
L 183.451125 197.248548 
L 183.897525 192.421352 
L 184.790325 198.644998 
L 185.236725 197.995873 
L 185.683125 197.937488 
L 187.022325 193.359728 
L 187.468725 198.678819 
L 187.915125 195.270504 
L 188.361525 195.080426 
L 188.807925 198.743 
L 189.254325 196.626536 
L 189.700725 195.938571 
L 190.147125 191.350521 
L 190.593525 201.150341 
L 191.039925 191.589099 
L 191.486325 197.800483 
L 191.932725 196.845739 
L 192.379125 201.702417 
L 192.825525 196.831345 
L 193.271925 199.497701 
L 193.718325 196.756283 
L 194.164725 195.376989 
L 194.611125 199.390985 
L 195.057525 202.189403 
L 195.503925 197.20017 
L 195.950325 196.768425 
L 196.396725 199.314983 
L 196.843125 195.604221 
L 197.289525 197.429461 
L 197.735925 194.644133 
L 198.182325 199.42342 
L 198.628725 201.686662 
L 199.075125 191.810273 
L 199.521525 196.244944 
L 199.967925 192.867118 
L 200.414325 191.77969 
L 200.860725 197.582573 
L 201.307125 197.136996 
L 201.753525 194.361807 
L 202.199925 195.545881 
L 202.646325 191.905349 
L 203.092725 196.817799 
L 203.539125 193.434083 
L 203.985525 201.21359 
L 204.431925 197.016728 
L 204.878325 194.628085 
L 205.324725 199.452265 
L 206.217525 198.661866 
L 206.663925 198.828643 
L 207.110325 197.105058 
L 207.556725 197.324998 
L 208.003125 195.119877 
L 208.449525 198.659469 
L 208.895925 199.656812 
L 209.342325 199.450749 
L 209.788725 197.937708 
L 210.235125 192.35235 
L 210.681525 192.92402 
L 211.127925 195.911648 
L 211.574325 195.775662 
L 212.020725 204.129943 
L 212.467125 198.05671 
L 212.913525 196.440868 
L 213.359925 197.76578 
L 213.806325 196.945016 
L 214.252725 197.328118 
L 214.699125 198.78909 
L 215.145525 198.216608 
L 215.591925 199.484608 
L 216.038325 198.587622 
L 216.484725 197.974264 
L 216.931125 193.833903 
L 217.377525 202.517933 
L 217.823925 199.08013 
L 218.270325 197.433844 
L 218.716725 199.272639 
L 219.163125 196.011463 
L 219.609525 198.412978 
L 220.055925 198.876106 
L 220.502325 201.255382 
L 220.948725 197.971796 
L 221.395125 200.516527 
L 221.841525 200.633321 
L 222.287925 198.297511 
L 222.734325 202.493597 
L 223.180725 196.531643 
L 223.627125 198.796947 
L 224.073525 196.84737 
L 224.519925 202.336828 
L 224.966325 196.371822 
L 225.412725 200.324187 
L 225.859125 197.43741 
L 226.305525 197.857432 
L 226.751925 200.090602 
L 227.644725 195.624053 
L 228.091125 200.649172 
L 228.537525 202.371888 
L 228.983925 196.644461 
L 229.876725 201.29337 
L 230.323125 196.939999 
L 230.769525 201.451233 
L 231.215925 202.521562 
L 231.662325 198.380147 
L 232.108725 201.261469 
L 232.555125 201.416867 
L 233.001525 198.939092 
L 233.447925 201.425582 
L 233.894325 198.772587 
L 234.340725 197.210223 
L 235.233525 201.690982 
L 235.679925 198.041421 
L 236.126325 203.361674 
L 236.572725 197.563688 
L 237.019125 198.392723 
L 237.465525 201.218024 
L 237.911925 201.357297 
L 238.358325 196.679807 
L 238.804725 197.754921 
L 239.251125 202.837431 
L 239.697525 196.987591 
L 240.143925 199.029222 
L 240.590325 199.605455 
L 241.036725 198.405897 
L 241.483125 198.464306 
L 241.929525 199.86643 
L 242.375925 200.53749 
L 242.822325 198.319556 
L 243.268725 202.032457 
L 243.715125 202.976728 
L 244.161525 199.854375 
L 244.607925 201.798383 
L 245.054325 202.580583 
L 245.500725 199.739432 
L 245.947125 201.161212 
L 246.393525 198.231618 
L 246.839925 199.533865 
L 247.286325 202.565234 
L 247.732725 198.258717 
L 248.179125 203.616655 
L 248.625525 204.89752 
L 249.071925 197.655121 
L 249.518325 202.665892 
L 249.964725 202.382992 
L 250.411125 198.555879 
L 250.857525 198.857847 
L 251.303925 200.019348 
L 252.196725 198.58621 
L 252.643125 198.556683 
L 253.089525 203.095583 
L 253.535925 199.842404 
L 253.982325 202.246543 
L 254.428725 203.74743 
L 254.875125 198.36638 
L 255.321525 199.62627 
L 255.767925 198.334802 
L 256.214325 194.212744 
L 256.660725 198.895274 
L 257.107125 197.87643 
L 257.553525 205.044607 
L 257.999925 198.04766 
L 258.446325 204.200054 
L 258.892725 203.786205 
L 259.339125 197.701414 
L 259.785525 197.722576 
L 260.231925 197.99448 
L 260.678325 200.354388 
L 261.124725 200.449448 
L 261.571125 200.708558 
L 262.017525 201.723019 
L 262.463925 199.851795 
L 262.910325 201.260784 
L 263.356725 200.784489 
L 263.803125 201.918844 
L 264.249525 201.561576 
L 264.695925 202.618606 
L 265.142325 202.092819 
L 265.588725 202.229453 
L 266.035125 198.406586 
L 266.481525 201.202155 
L 266.927925 197.913203 
L 267.374325 197.328067 
L 267.820725 203.585707 
L 268.267125 196.878202 
L 268.713525 195.942409 
L 269.606325 200.394531 
L 270.052725 201.813912 
L 270.499125 203.676321 
L 270.945525 201.979547 
L 271.391925 197.785724 
L 271.838325 198.083222 
L 272.284725 200.56229 
L 272.731125 200.405184 
L 273.177525 199.710416 
L 273.623925 202.684178 
L 274.070325 200.056749 
L 274.963125 193.093945 
L 275.409525 203.157144 
L 275.855925 199.219894 
L 276.302325 204.906859 
L 276.748725 202.779992 
L 277.195125 204.411314 
L 277.641525 197.663433 
L 278.087925 204.532188 
L 278.534325 205.223574 
L 278.980725 200.930162 
L 279.427125 199.13747 
L 279.873525 202.855129 
L 280.319925 203.15894 
L 281.212725 195.133877 
L 281.659125 202.528545 
L 282.105525 205.80888 
L 282.551925 203.25876 
L 282.998325 202.801771 
L 283.444725 199.117858 
L 283.891125 199.295835 
L 284.337525 202.97278 
L 284.783925 192.638134 
L 285.230325 194.500046 
L 285.676725 201.448393 
L 286.123125 200.414853 
L 286.569525 199.769347 
L 287.015925 200.972041 
L 287.462325 200.464837 
L 287.908725 197.716604 
L 288.355125 201.363828 
L 288.801525 197.694516 
L 289.247925 200.16065 
L 289.694325 204.148955 
L 290.140725 202.389838 
L 290.587125 197.047372 
L 291.033525 200.60426 
L 291.479925 199.981975 
L 291.926325 202.601408 
L 292.372725 199.786413 
L 292.819125 198.631123 
L 293.265525 196.177696 
L 294.158325 197.575018 
L 294.604725 202.842763 
L 295.051125 203.01507 
L 295.497525 197.694815 
L 295.943925 203.725091 
L 296.390325 201.500076 
L 296.836725 201.402868 
L 297.283125 203.092935 
L 297.729525 206.338786 
L 298.175925 206.710114 
L 298.622325 198.775889 
L 299.068725 195.243174 
L 299.515125 199.737372 
L 299.961525 202.102354 
L 300.407925 199.144623 
L 300.854325 202.169781 
L 301.300725 198.968505 
L 301.747125 204.736367 
L 302.193525 205.643688 
L 302.639925 201.796474 
L 303.086325 199.195474 
L 303.532725 203.268421 
L 303.979125 198.958768 
L 304.425525 202.914173 
L 304.871925 199.365666 
L 305.318325 207.166126 
L 305.764725 203.452434 
L 306.211125 201.412091 
L 306.657525 204.961516 
L 307.103925 201.140262 
L 307.550325 199.133083 
L 307.996725 200.991707 
L 308.443125 197.620231 
L 308.889525 196.257549 
L 309.335925 202.148401 
L 309.782325 204.805243 
L 310.228725 205.189121 
L 310.675125 200.835634 
L 311.567925 206.423717 
L 312.460725 197.563958 
L 312.907125 204.080178 
L 313.353525 204.687305 
L 313.799925 201.360624 
L 314.246325 202.083006 
L 314.692725 205.148812 
L 315.139125 196.342849 
L 315.585525 205.678673 
L 316.031925 204.887292 
L 316.478325 205.563564 
L 316.924725 203.299957 
L 317.371125 204.766447 
L 317.817525 205.242099 
L 318.263925 204.223598 
L 318.710325 203.527112 
L 319.156725 199.96615 
L 319.603125 200.096719 
L 320.049525 198.479913 
L 320.495925 201.751921 
L 320.942325 199.386858 
L 321.388725 204.298486 
L 321.835125 200.898948 
L 322.281525 201.169706 
L 322.727925 202.135287 
L 323.174325 205.050936 
L 323.620725 198.331063 
L 324.067125 196.013427 
L 324.959925 202.46826 
L 325.406325 204.337316 
L 325.852725 201.195097 
L 326.299125 203.306564 
L 326.745525 204.206556 
L 327.191925 201.459486 
L 327.638325 202.927036 
L 328.084725 201.073774 
L 328.531125 201.17303 
L 328.977525 202.89128 
L 329.423925 198.849199 
L 329.870325 204.261672 
L 330.316725 198.507435 
L 330.763125 207.84085 
L 331.209525 200.28131 
L 331.655925 201.096507 
L 332.102325 203.339437 
L 332.548725 197.068987 
L 333.887925 206.435588 
L 334.334325 200.072134 
L 334.780725 202.338026 
L 335.227125 201.951162 
L 335.673525 203.46347 
L 336.119925 205.601392 
L 336.566325 204.606458 
L 337.012725 202.165253 
L 337.459125 204.353288 
L 337.905525 202.539814 
L 338.351925 201.21207 
L 338.798325 200.568677 
L 339.244725 196.544362 
L 339.691125 205.309038 
L 340.137525 200.801124 
L 340.583925 203.226464 
L 341.030325 206.396287 
L 341.476725 199.532619 
L 341.923125 202.964459 
L 342.369525 203.654137 
L 343.262325 200.327284 
L 343.708725 205.826586 
L 344.155125 203.191467 
L 344.601525 203.86589 
L 345.047925 203.697654 
L 345.494325 204.83041 
L 345.940725 203.967578 
L 346.387125 204.470052 
L 346.833525 200.296767 
L 347.279925 203.608871 
L 347.726325 201.774474 
L 348.172725 198.394422 
L 348.619125 206.617787 
L 349.065525 199.704353 
L 349.958325 204.5608 
L 350.404725 202.893002 
L 350.851125 203.85348 
L 351.297525 199.344605 
L 351.743925 203.536934 
L 352.190325 201.487604 
L 352.636725 201.420829 
L 353.083125 203.637486 
L 353.529525 204.174413 
L 353.975925 203.445158 
L 354.422325 195.696247 
L 354.868725 205.232152 
L 355.315125 205.418316 
L 355.761525 206.189745 
L 356.207925 205.05706 
L 356.654325 205.622347 
L 357.100725 204.639556 
L 357.547125 203.249923 
L 357.993525 202.538705 
L 358.439925 204.610338 
L 358.886325 207.592128 
L 359.332725 203.993582 
L 359.779125 205.378622 
L 360.225525 199.691361 
L 360.671925 204.709072 
L 361.118325 203.010923 
L 361.564725 205.591096 
L 362.011125 202.153921 
L 362.457525 202.06583 
L 362.903925 204.030361 
L 363.350325 202.830863 
L 363.796725 199.947837 
L 364.243125 203.324873 
L 364.689525 199.504819 
L 365.135925 204.998663 
L 365.582325 198.395429 
L 366.028725 205.490512 
L 366.475125 207.035568 
L 366.921525 202.303443 
L 367.367925 202.192608 
L 367.814325 199.263517 
L 368.260725 207.930088 
L 368.707125 205.708447 
L 369.153525 207.780089 
L 369.599925 201.17704 
L 370.046325 200.193498 
L 370.492725 202.799733 
L 370.939125 204.177284 
L 371.385525 199.327087 
L 371.831925 211.546448 
L 372.278325 201.779047 
L 372.724725 204.079274 
L 373.171125 200.655989 
L 373.617525 200.595976 
L 374.063925 205.458573 
L 374.510325 205.164769 
L 374.956725 202.522236 
L 375.403125 207.223615 
L 375.849525 203.348324 
L 375.849525 203.348324 
" style="fill:none;stroke:#1f77b4;stroke-linecap:square;stroke-width:1.5;"/>
   </g>
   <g id="line2d_17">
    <path clip-path="url(#p60414968a7)" d="M 40.603125 17.083636 
L 41.049525 36.409785 
L 41.495925 35.981175 
L 41.942325 75.445293 
L 42.388725 69.001215 
L 42.835125 94.415621 
L 43.281525 87.837349 
L 43.727925 108.212675 
L 44.174325 114.371532 
L 44.620725 118.203387 
L 45.067125 113.629685 
L 45.513525 117.611286 
L 45.959925 115.819618 
L 46.406325 126.059186 
L 46.852725 112.69638 
L 47.299125 127.671796 
L 47.745525 134.332412 
L 48.191925 139.213233 
L 48.638325 124.915019 
L 49.084725 143.488004 
L 49.531125 137.813213 
L 49.977525 141.103431 
L 50.423925 142.332044 
L 51.316725 147.901287 
L 51.763125 125.965796 
L 52.209525 154.441795 
L 52.655925 146.128761 
L 53.102325 153.812585 
L 53.548725 145.612943 
L 53.995125 144.322668 
L 54.441525 151.295421 
L 54.887925 143.949868 
L 55.334325 156.021813 
L 55.780725 150.637398 
L 56.227125 153.03871 
L 56.673525 151.425678 
L 57.119925 161.699503 
L 57.566325 150.003076 
L 58.459125 158.876322 
L 58.905525 159.314708 
L 59.351925 154.965304 
L 59.798325 155.093774 
L 60.244725 164.581926 
L 60.691125 157.595463 
L 61.137525 155.328042 
L 61.583925 162.843202 
L 62.030325 162.249088 
L 62.476725 166.964149 
L 62.923125 165.583456 
L 63.369525 171.427836 
L 63.815925 163.277319 
L 64.262325 160.480208 
L 64.708725 168.202893 
L 65.155125 166.042106 
L 65.601525 168.135707 
L 66.047925 164.262123 
L 66.494325 170.226592 
L 66.940725 165.723169 
L 67.387125 170.802546 
L 67.833525 166.565841 
L 68.279925 165.053184 
L 68.726325 161.661631 
L 69.172725 167.287648 
L 69.619125 164.210323 
L 70.065525 170.047395 
L 70.511925 170.722892 
L 70.958325 159.044758 
L 71.404725 178.845944 
L 71.851125 170.397159 
L 72.297525 170.026189 
L 72.743925 175.465465 
L 73.190325 165.948506 
L 73.636725 163.92377 
L 74.083125 161.074309 
L 74.529525 171.061149 
L 74.975925 171.558867 
L 75.422325 173.095947 
L 75.868725 170.477793 
L 76.315125 175.184236 
L 76.761525 167.485148 
L 77.207925 174.041396 
L 77.654325 175.815541 
L 78.100725 174.802572 
L 78.547125 173.092514 
L 78.993525 173.018865 
L 79.439925 167.620972 
L 79.886325 175.710561 
L 80.332725 180.237521 
L 80.779125 175.568536 
L 81.225525 177.322163 
L 81.671925 180.867219 
L 82.118325 175.797764 
L 82.564725 184.099866 
L 83.011125 174.08416 
L 83.457525 183.481707 
L 83.903925 171.261028 
L 84.350325 172.946759 
L 84.796725 177.413918 
L 85.243125 172.656348 
L 85.689525 183.769288 
L 86.135925 184.891669 
L 86.582325 178.914045 
L 87.028725 188.078162 
L 87.475125 180.715193 
L 87.921525 178.2997 
L 88.367925 180.232421 
L 88.814325 178.261931 
L 89.260725 178.332355 
L 89.707125 183.465451 
L 90.153525 178.763329 
L 90.599925 182.31067 
L 91.046325 183.185601 
L 91.492725 186.947642 
L 91.939125 179.402154 
L 92.385525 178.446177 
L 92.831925 175.686477 
L 93.278325 181.788111 
L 93.724725 183.52215 
L 94.171125 189.556472 
L 94.617525 180.513831 
L 95.063925 190.203781 
L 95.510325 184.381053 
L 95.956725 182.449305 
L 96.403125 178.541322 
L 96.849525 183.411613 
L 97.295925 177.110788 
L 97.742325 180.584134 
L 98.188725 185.079071 
L 98.635125 186.298966 
L 99.081525 178.722085 
L 99.527925 181.018389 
L 99.974325 179.691812 
L 100.420725 186.54043 
L 100.867125 179.494681 
L 101.313525 182.260784 
L 101.759925 186.570451 
L 102.206325 185.419759 
L 102.652725 185.754085 
L 103.099125 185.431906 
L 103.545525 183.631203 
L 103.991925 180.790883 
L 104.438325 182.480595 
L 104.884725 186.984219 
L 105.331125 184.773861 
L 105.777525 184.054283 
L 106.223925 186.574045 
L 106.670325 183.279376 
L 107.563125 189.347385 
L 108.009525 191.525233 
L 108.455925 192.851284 
L 108.902325 186.489444 
L 109.348725 188.6086 
L 109.795125 189.979259 
L 110.241525 183.858785 
L 110.687925 186.808343 
L 111.134325 192.539315 
L 111.580725 186.263398 
L 112.027125 193.500076 
L 112.473525 184.028243 
L 112.919925 190.655801 
L 113.366325 188.553363 
L 113.812725 187.995158 
L 114.259125 191.550343 
L 114.705525 189.25629 
L 115.151925 188.145205 
L 115.598325 184.148848 
L 116.044725 189.114663 
L 116.937525 187.051428 
L 117.383925 184.995224 
L 117.830325 194.034299 
L 118.276725 182.234133 
L 118.723125 188.438909 
L 119.615925 191.645538 
L 120.062325 192.407407 
L 120.508725 184.746392 
L 120.955125 188.527179 
L 121.401525 185.489448 
L 121.847925 193.261681 
L 122.294325 184.148849 
L 122.740725 186.193807 
L 123.187125 184.847037 
L 123.633525 191.430643 
L 124.079925 188.153214 
L 124.526325 188.614295 
L 124.972725 192.563771 
L 125.419125 189.061079 
L 125.865525 197.111446 
L 126.311925 187.193444 
L 126.758325 186.783846 
L 127.204725 187.617287 
L 127.651125 191.957007 
L 128.097525 188.463559 
L 128.543925 191.41578 
L 129.436725 196.086553 
L 129.883125 187.190147 
L 130.775925 190.926068 
L 131.222325 190.529149 
L 131.668725 190.804065 
L 132.115125 188.035417 
L 132.561525 190.016232 
L 133.007925 190.756059 
L 133.454325 189.72522 
L 133.900725 191.448892 
L 134.347125 196.61371 
L 134.793525 185.954226 
L 135.239925 192.76612 
L 135.686325 190.829859 
L 136.132725 184.413328 
L 136.579125 190.361744 
L 137.025525 189.884679 
L 137.471925 196.386713 
L 137.918325 190.996315 
L 138.364725 190.136271 
L 138.811125 190.818243 
L 139.257525 190.920299 
L 139.703925 194.647056 
L 140.150325 196.119622 
L 140.596725 194.434023 
L 141.043125 194.777263 
L 141.489525 199.18484 
L 141.935925 191.242161 
L 142.382325 198.584285 
L 142.828725 191.793833 
L 143.275125 192.600301 
L 143.721525 196.897335 
L 144.167925 192.401155 
L 144.614325 192.669253 
L 145.060725 193.354516 
L 145.507125 189.072405 
L 145.953525 192.632832 
L 146.399925 194.634074 
L 146.846325 193.691603 
L 147.292725 191.996407 
L 147.739125 195.659643 
L 148.185525 189.277843 
L 148.631925 196.948487 
L 149.078325 193.229825 
L 149.524725 190.504761 
L 149.971125 190.857627 
L 150.417525 197.32076 
L 150.863925 192.891566 
L 151.310325 195.656235 
L 151.756725 197.489451 
L 152.203125 193.242589 
L 152.649525 199.966989 
L 153.095925 188.616253 
L 153.542325 189.579473 
L 153.988725 187.344673 
L 154.435125 191.423062 
L 155.327925 188.252062 
L 155.774325 192.639766 
L 156.220725 200.133203 
L 156.667125 191.798495 
L 157.113525 194.06279 
L 157.559925 185.922873 
L 158.006325 200.230034 
L 158.452725 195.898521 
L 158.899125 194.034704 
L 159.345525 197.734297 
L 159.791925 198.58275 
L 160.238325 195.953794 
L 160.684725 189.47561 
L 161.131125 196.701231 
L 161.577525 190.850459 
L 162.023925 199.373716 
L 162.470325 198.439058 
L 162.916725 194.153027 
L 163.363125 200.455084 
L 163.809525 193.894346 
L 164.255925 196.579376 
L 164.702325 194.328778 
L 165.148725 190.695063 
L 165.595125 192.546689 
L 166.041525 193.344405 
L 166.487925 195.916066 
L 166.934325 191.997782 
L 167.380725 196.632675 
L 167.827125 197.545451 
L 168.719925 193.819846 
L 169.166325 197.556073 
L 169.612725 196.665126 
L 170.059125 200.683468 
L 170.505525 195.078614 
L 170.951925 199.650898 
L 171.398325 197.869061 
L 171.844725 198.015019 
L 172.291125 188.296539 
L 172.737525 198.06145 
L 173.183925 196.08887 
L 173.630325 196.689609 
L 174.076725 195.810693 
L 174.523125 197.964878 
L 174.969525 198.108681 
L 175.415925 199.9917 
L 175.862325 194.329654 
L 176.308725 197.536214 
L 176.755125 196.450928 
L 177.201525 200.384528 
L 177.647925 196.056708 
L 178.094325 197.728971 
L 178.540725 198.066412 
L 178.987125 189.744432 
L 179.433525 189.134117 
L 179.879925 201.036999 
L 180.326325 194.133069 
L 181.219125 197.405814 
L 181.665525 198.261247 
L 182.111925 190.012378 
L 182.558325 202.516156 
L 183.004725 190.805752 
L 183.451125 197.138984 
L 183.897525 194.584358 
L 184.343925 195.665841 
L 184.790325 195.926222 
L 185.236725 191.707215 
L 185.683125 195.579243 
L 186.129525 201.407849 
L 186.575925 194.275392 
L 187.022325 200.027738 
L 187.468725 193.289716 
L 187.915125 198.127796 
L 188.361525 190.593133 
L 188.807925 194.771843 
L 189.700725 197.429713 
L 190.147125 194.094003 
L 190.593525 195.634904 
L 191.039925 192.64211 
L 191.486325 202.822403 
L 192.379125 195.274054 
L 192.825525 187.774013 
L 193.271925 198.47441 
L 193.718325 196.890121 
L 194.164725 196.483223 
L 194.611125 197.252781 
L 195.057525 195.414761 
L 195.503925 196.431056 
L 195.950325 191.831992 
L 196.396725 200.963195 
L 196.843125 197.002614 
L 197.289525 200.035074 
L 197.735925 198.477939 
L 198.182325 199.871428 
L 198.628725 199.198128 
L 199.075125 202.007436 
L 199.521525 199.902506 
L 199.967925 194.709041 
L 200.414325 198.065964 
L 200.860725 197.644654 
L 201.307125 199.6789 
L 201.753525 198.693833 
L 202.199925 200.128216 
L 202.646325 193.757177 
L 203.092725 198.647759 
L 203.539125 195.410656 
L 203.985525 194.171851 
L 204.431925 205.157588 
L 204.878325 197.205002 
L 205.324725 195.612719 
L 206.217525 201.515592 
L 206.663925 196.930166 
L 207.110325 199.2202 
L 207.556725 197.500595 
L 208.003125 196.571779 
L 208.449525 198.202321 
L 208.895925 194.737809 
L 209.342325 194.273481 
L 210.235125 198.650155 
L 210.681525 195.993994 
L 211.127925 200.567125 
L 211.574325 201.311863 
L 212.020725 197.206048 
L 212.467125 197.237872 
L 212.913525 197.451813 
L 213.359925 193.400756 
L 213.806325 201.102226 
L 214.252725 200.698883 
L 214.699125 201.583671 
L 215.145525 198.759908 
L 215.591925 201.894974 
L 216.038325 201.504042 
L 216.484725 201.538675 
L 216.931125 200.880758 
L 217.377525 195.136908 
L 217.823925 204.162437 
L 218.270325 201.826444 
L 218.716725 198.165468 
L 219.163125 197.508759 
L 219.609525 199.401974 
L 220.055925 199.511344 
L 220.502325 195.384028 
L 220.948725 196.658953 
L 221.395125 200.656388 
L 221.841525 198.586841 
L 222.287925 202.460817 
L 222.734325 198.009834 
L 223.180725 196.191519 
L 224.073525 199.277608 
L 224.519925 196.610624 
L 224.966325 205.372956 
L 225.412725 204.886771 
L 225.859125 197.080277 
L 226.305525 203.690582 
L 226.751925 198.564234 
L 227.198325 198.165289 
L 227.644725 204.358868 
L 228.091125 199.247361 
L 228.537525 199.024057 
L 228.983925 198.959745 
L 229.430325 197.244994 
L 229.876725 194.441396 
L 230.323125 192.98199 
L 230.769525 199.362251 
L 231.215925 200.970122 
L 231.662325 199.898918 
L 232.108725 201.20613 
L 232.555125 200.451659 
L 233.001525 200.845243 
L 233.447925 197.852018 
L 233.894325 197.423228 
L 234.340725 201.381402 
L 234.787125 197.321297 
L 235.233525 203.599193 
L 235.679925 204.508559 
L 236.572725 196.542387 
L 237.019125 196.366178 
L 237.465525 198.56673 
L 237.911925 203.198121 
L 238.358325 201.210895 
L 238.804725 201.377656 
L 239.251125 195.230691 
L 239.697525 194.79721 
L 240.143925 203.214471 
L 240.590325 196.32849 
L 241.036725 201.181903 
L 241.483125 196.592124 
L 241.929525 201.920113 
L 242.375925 199.177212 
L 242.822325 202.585171 
L 243.268725 201.908183 
L 243.715125 202.236315 
L 244.161525 200.405889 
L 244.607925 200.676885 
L 245.054325 196.992306 
L 245.947125 202.726407 
L 246.393525 203.052896 
L 246.839925 197.074591 
L 247.286325 197.651727 
L 247.732725 199.297385 
L 248.179125 197.075322 
L 248.625525 193.657242 
L 249.071925 200.018509 
L 249.518325 200.500779 
L 249.964725 205.573717 
L 250.411125 205.446492 
L 250.857525 199.927378 
L 251.303925 198.397328 
L 251.750325 198.455088 
L 252.196725 203.825986 
L 252.643125 199.479761 
L 253.089525 202.537492 
L 253.982325 199.655305 
L 254.428725 196.813271 
L 254.875125 202.353968 
L 255.321525 204.178579 
L 255.767925 197.980946 
L 256.214325 204.60235 
L 256.660725 200.98063 
L 257.107125 196.021808 
L 257.553525 204.552385 
L 257.999925 204.179291 
L 258.446325 200.200404 
L 258.892725 200.356369 
L 259.339125 199.49008 
L 259.785525 198.330279 
L 260.231925 205.47012 
L 260.678325 198.59033 
L 261.124725 200.267733 
L 261.571125 198.181609 
L 262.017525 199.135664 
L 262.463925 201.962602 
L 262.910325 196.673906 
L 263.356725 197.104067 
L 263.803125 194.728145 
L 264.249525 199.406597 
L 264.695925 197.78598 
L 265.142325 198.178197 
L 265.588725 199.770205 
L 266.035125 198.984378 
L 266.481525 202.819793 
L 266.927925 200.548043 
L 267.374325 196.537648 
L 267.820725 197.093216 
L 268.267125 195.061328 
L 268.713525 200.760955 
L 269.159925 200.966146 
L 269.606325 203.203643 
L 270.052725 200.13127 
L 270.499125 200.000752 
L 270.945525 202.876935 
L 271.838325 198.014263 
L 272.284725 204.282957 
L 273.177525 199.394559 
L 273.623925 200.089204 
L 274.070325 201.383823 
L 274.516725 200.259979 
L 274.963125 196.863246 
L 275.409525 204.254916 
L 275.855925 198.575304 
L 276.302325 203.229692 
L 276.748725 205.26419 
L 277.195125 200.801194 
L 278.087925 205.481593 
L 278.534325 201.689024 
L 278.980725 191.96631 
L 279.427125 203.503674 
L 279.873525 201.281595 
L 280.319925 198.161805 
L 280.766325 198.827821 
L 281.212725 200.375553 
L 281.659125 198.571951 
L 282.105525 198.855683 
L 282.551925 198.510178 
L 282.998325 198.56181 
L 283.444725 204.847071 
L 283.891125 196.672373 
L 284.337525 202.299076 
L 284.783925 196.367104 
L 285.230325 197.993287 
L 285.676725 201.119287 
L 286.123125 200.452933 
L 286.569525 194.675836 
L 287.015925 204.500077 
L 287.462325 195.254155 
L 287.908725 199.264593 
L 288.355125 200.068106 
L 288.801525 205.420491 
L 289.247925 203.516166 
L 289.694325 199.730803 
L 290.140725 194.49203 
L 291.033525 202.203156 
L 291.479925 199.384907 
L 291.926325 199.194936 
L 292.372725 197.839389 
L 292.819125 203.4388 
L 293.265525 194.927959 
L 293.711925 202.265807 
L 294.158325 193.484308 
L 294.604725 197.797522 
L 295.051125 200.270166 
L 295.943925 202.685911 
L 296.836725 199.380408 
L 297.283125 199.154323 
L 297.729525 200.041578 
L 298.175925 200.313112 
L 298.622325 200.415638 
L 299.068725 204.185862 
L 299.515125 204.916842 
L 299.961525 201.536499 
L 300.407925 203.810938 
L 300.854325 201.470718 
L 301.300725 204.488018 
L 301.747125 196.205319 
L 302.193525 198.52185 
L 302.639925 195.928386 
L 303.532725 204.03753 
L 304.425525 196.815132 
L 304.871925 200.062035 
L 305.318325 201.267888 
L 305.764725 206.791208 
L 306.211125 199.228285 
L 306.657525 202.026919 
L 307.103925 198.700577 
L 307.550325 203.829716 
L 308.443125 199.677631 
L 308.889525 198.236733 
L 309.335925 200.784892 
L 309.782325 202.072601 
L 310.228725 195.9261 
L 310.675125 200.057043 
L 311.121525 205.222478 
L 311.567925 204.527513 
L 312.014325 204.175167 
L 312.460725 201.42489 
L 312.907125 202.198794 
L 313.353525 196.447213 
L 313.799925 195.785774 
L 314.246325 200.184795 
L 314.692725 200.829308 
L 315.139125 200.701551 
L 315.585525 199.91086 
L 316.031925 202.660751 
L 316.478325 198.95812 
L 316.924725 203.253531 
L 317.371125 203.254083 
L 317.817525 200.697154 
L 318.263925 204.332311 
L 318.710325 193.525232 
L 319.156725 205.111449 
L 319.603125 203.03994 
L 320.049525 198.841733 
L 320.495925 199.982962 
L 320.942325 202.081227 
L 321.388725 203.270632 
L 321.835125 202.316571 
L 322.281525 201.84222 
L 322.727925 197.880481 
L 323.174325 197.531976 
L 323.620725 201.399554 
L 324.067125 202.602058 
L 324.513525 199.995928 
L 324.959925 199.502687 
L 325.406325 204.799131 
L 326.299125 199.49547 
L 326.745525 194.700474 
L 327.191925 200.248836 
L 327.638325 202.471677 
L 328.084725 203.089298 
L 328.531125 207.523839 
L 328.977525 197.444228 
L 329.423925 200.11351 
L 329.870325 205.278528 
L 330.316725 193.185702 
L 331.209525 205.620006 
L 331.655925 202.008884 
L 332.548725 200.627309 
L 333.441525 205.555335 
L 333.887925 204.223382 
L 334.334325 201.225349 
L 334.780725 201.902724 
L 335.227125 203.472639 
L 335.673525 203.156774 
L 336.119925 201.968596 
L 336.566325 207.318266 
L 337.012725 203.350745 
L 337.459125 205.737031 
L 337.905525 205.826449 
L 338.351925 198.717439 
L 338.798325 205.06586 
L 339.244725 204.428786 
L 339.691125 198.53693 
L 340.137525 197.161397 
L 340.583925 202.797214 
L 341.030325 201.044236 
L 341.476725 200.190978 
L 341.923125 198.559921 
L 342.369525 197.990091 
L 342.815925 205.161854 
L 343.262325 198.178207 
L 343.708725 203.250698 
L 344.155125 206.309543 
L 344.601525 206.742514 
L 345.047925 199.234166 
L 345.494325 201.971356 
L 345.940725 202.563578 
L 346.387125 201.161181 
L 346.833525 204.50483 
L 347.279925 206.868513 
L 347.726325 206.708271 
L 348.172725 201.839819 
L 348.619125 202.371519 
L 349.065525 205.178999 
L 349.511925 204.622773 
L 349.958325 205.181131 
L 350.404725 203.570339 
L 350.851125 201.231357 
L 351.297525 203.65455 
L 351.743925 203.633429 
L 352.190325 202.729903 
L 352.636725 203.977908 
L 353.083125 200.555607 
L 353.529525 203.608104 
L 353.975925 196.91285 
L 354.422325 204.921958 
L 354.868725 202.43826 
L 355.315125 203.342805 
L 355.761525 203.915099 
L 356.207925 206.57769 
L 356.654325 203.364586 
L 357.100725 205.238415 
L 357.547125 203.422536 
L 357.993525 202.737961 
L 358.439925 200.514208 
L 358.886325 202.668138 
L 359.779125 205.486397 
L 360.225525 202.96554 
L 360.671925 201.846891 
L 361.118325 202.699383 
L 361.564725 200.481654 
L 362.011125 201.897545 
L 362.457525 204.489256 
L 362.903925 200.307276 
L 363.350325 203.066628 
L 363.796725 204.945546 
L 364.243125 200.841869 
L 364.689525 203.015002 
L 365.135925 206.653185 
L 365.582325 202.59846 
L 366.028725 202.504667 
L 366.475125 201.788404 
L 366.921525 199.972227 
L 367.367925 198.755825 
L 367.814325 203.845936 
L 368.260725 202.61131 
L 368.707125 202.721725 
L 369.153525 200.581133 
L 369.599925 204.402359 
L 370.046325 199.771062 
L 370.492725 205.268968 
L 370.939125 203.767818 
L 371.385525 204.397954 
L 371.831925 201.208546 
L 372.278325 200.810703 
L 372.724725 204.764266 
L 373.171125 202.97137 
L 373.617525 199.626062 
L 374.063925 202.265579 
L 374.510325 202.345881 
L 374.956725 200.048728 
L 375.403125 209.062775 
L 375.849525 205.73912 
L 375.849525 205.73912 
" style="fill:none;stroke:#ff7f0e;stroke-linecap:square;stroke-width:1.5;"/>
   </g>
   <g id="patch_3">
    <path d="M 40.603125 224.64 
L 40.603125 7.2 
" style="fill:none;stroke:#000000;stroke-linecap:square;stroke-linejoin:miter;stroke-width:0.8;"/>
   </g>
   <g id="patch_4">
    <path d="M 375.403125 224.64 
L 375.403125 7.2 
" style="fill:none;stroke:#000000;stroke-linecap:square;stroke-linejoin:miter;stroke-width:0.8;"/>
   </g>
   <g id="patch_5">
    <path d="M 40.603125 224.64 
L 375.403125 224.64 
" style="fill:none;stroke:#000000;stroke-linecap:square;stroke-linejoin:miter;stroke-width:0.8;"/>
   </g>
   <g id="patch_6">
    <path d="M 40.603125 7.2 
L 375.403125 7.2 
" style="fill:none;stroke:#000000;stroke-linecap:square;stroke-linejoin:miter;stroke-width:0.8;"/>
   </g>
   <g id="legend_1">
    <g id="patch_7">
     <path d="M 283.923437 45.1125 
L 368.403125 45.1125 
Q 370.403125 45.1125 370.403125 43.1125 
L 370.403125 14.2 
Q 370.403125 12.2 368.403125 12.2 
L 283.923437 12.2 
Q 281.923437 12.2 281.923437 14.2 
L 281.923437 43.1125 
Q 281.923437 45.1125 283.923437 45.1125 
z
" style="fill:#ffffff;opacity:0.8;stroke:#cccccc;stroke-linejoin:miter;"/>
    </g>
    <g id="line2d_18">
     <path d="M 285.923437 20.298437 
L 305.923437 20.298437 
" style="fill:none;stroke:#1f77b4;stroke-linecap:square;stroke-width:1.5;"/>
    </g>
    <g id="line2d_19"/>
    <g id="text_18">
     <!-- train_error -->
     <g transform="translate(313.923437 23.798437)scale(0.1 -0.1)">
      <defs>
       <path d="M 50.984375 -16.609375 
L 50.984375 -23.578125 
L -0.984375 -23.578125 
L -0.984375 -16.609375 
z
" id="DejaVuSans-95"/>
      </defs>
      <use xlink:href="#DejaVuSans-116"/>
      <use x="39.208984" xlink:href="#DejaVuSans-114"/>
      <use x="80.322266" xlink:href="#DejaVuSans-97"/>
      <use x="141.601562" xlink:href="#DejaVuSans-105"/>
      <use x="169.384766" xlink:href="#DejaVuSans-110"/>
      <use x="232.763672" xlink:href="#DejaVuSans-95"/>
      <use x="282.763672" xlink:href="#DejaVuSans-101"/>
      <use x="344.287109" xlink:href="#DejaVuSans-114"/>
      <use x="383.650391" xlink:href="#DejaVuSans-114"/>
      <use x="422.513672" xlink:href="#DejaVuSans-111"/>
      <use x="483.695312" xlink:href="#DejaVuSans-114"/>
     </g>
    </g>
    <g id="line2d_20">
     <path d="M 285.923437 35.254687 
L 305.923437 35.254687 
" style="fill:none;stroke:#ff7f0e;stroke-linecap:square;stroke-width:1.5;"/>
    </g>
    <g id="line2d_21"/>
    <g id="text_19">
     <!-- test_error -->
     <g transform="translate(313.923437 38.754687)scale(0.1 -0.1)">
      <defs>
       <path d="M 44.28125 53.078125 
L 44.28125 44.578125 
Q 40.484375 46.53125 36.375 47.5 
Q 32.28125 48.484375 27.875 48.484375 
Q 21.1875 48.484375 17.84375 46.4375 
Q 14.5 44.390625 14.5 40.28125 
Q 14.5 37.15625 16.890625 35.375 
Q 19.28125 33.59375 26.515625 31.984375 
L 29.59375 31.296875 
Q 39.15625 29.25 43.1875 25.515625 
Q 47.21875 21.78125 47.21875 15.09375 
Q 47.21875 7.46875 41.1875 3.015625 
Q 35.15625 -1.421875 24.609375 -1.421875 
Q 20.21875 -1.421875 15.453125 -0.5625 
Q 10.6875 0.296875 5.421875 2 
L 5.421875 11.28125 
Q 10.40625 8.6875 15.234375 7.390625 
Q 20.0625 6.109375 24.8125 6.109375 
Q 31.15625 6.109375 34.5625 8.28125 
Q 37.984375 10.453125 37.984375 14.40625 
Q 37.984375 18.0625 35.515625 20.015625 
Q 33.0625 21.96875 24.703125 23.78125 
L 21.578125 24.515625 
Q 13.234375 26.265625 9.515625 29.90625 
Q 5.8125 33.546875 5.8125 39.890625 
Q 5.8125 47.609375 11.28125 51.796875 
Q 16.75 56 26.8125 56 
Q 31.78125 56 36.171875 55.265625 
Q 40.578125 54.546875 44.28125 53.078125 
z
" id="DejaVuSans-115"/>
      </defs>
      <use xlink:href="#DejaVuSans-116"/>
      <use x="39.208984" xlink:href="#DejaVuSans-101"/>
      <use x="100.732422" xlink:href="#DejaVuSans-115"/>
      <use x="152.832031" xlink:href="#DejaVuSans-116"/>
      <use x="192.041016" xlink:href="#DejaVuSans-95"/>
      <use x="242.041016" xlink:href="#DejaVuSans-101"/>
      <use x="303.564453" xlink:href="#DejaVuSans-114"/>
      <use x="342.927734" xlink:href="#DejaVuSans-114"/>
      <use x="381.791016" xlink:href="#DejaVuSans-111"/>
      <use x="442.972656" xlink:href="#DejaVuSans-114"/>
     </g>
    </g>
   </g>
  </g>
 </g>
 <defs>
  <clipPath id="p60414968a7">
   <rect height="217.44" width="334.8" x="40.603125" y="7.2"/>
  </clipPath>
 </defs>
</svg>
